Coordinates
version=1
nRows=4
nColumns=63
inDegrees=yes

Units are S.I. units (second, meters, Newtons, ...)
If the header above contains a line with 'inDegrees', this indicates whether rotational values are in degrees (yes) or radians (no).

endheader
time	pelvis_tilt	pelvis_list	pelvis_rotation	pelvis_tx	pelvis_ty	pelvis_tz	hip_flexion_r	hip_adduction_r	hip_rotation_r	knee_angle_r	knee_angle_r_beta	ankle_angle_r	subtalar_angle_r	mtp_angle_r	hip_flexion_l	hip_adduction_l	hip_rotation_l	knee_angle_l	knee_angle_l_beta	ankle_angle_l	subtalar_angle_l	mtp_angle_l	L5_S1_Flex_Ext	L5_S1_Lat_Bending	L5_S1_axial_rotation	L4_L5_Flex_Ext	L4_L5_Lat_Bending	L4_L5_axial_rotation	L3_L4_Flex_Ext	L3_L4_Lat_Bending	L3_L4_axial_rotation	L2_L3_Flex_Ext	L2_L3_Lat_Bending	L2_L3_axial_rotation	L1_L2_Flex_Ext	L1_L2_Lat_Bending	L1_L2_axial_rotation	L1_T12_Flex_Ext	L1_T12_Lat_Bending	L1_T12_axial_rotation	Abs_r3	Abs_r2	Abs_r1	Abs_t1	Abs_t2	neck_flexion	neck_bending	neck_rotation	arm_flex_r	arm_add_r	arm_rot_r	elbow_flex_r	pro_sup_r	wrist_flex_r	wrist_dev_r	arm_flex_l	arm_add_l	arm_rot_l	elbow_flex_l	pro_sup_l	wrist_flex_l	wrist_dev_l
      3.54237288	     -3.59857711	     -8.51056780	     88.14143719	      0.19586357	      0.94871761	      0.52927526	     11.40189565	     -6.26712332	    -16.56367360	     14.74607387	      0.25736754	     36.23461301	     17.96214153	      0.00000000	     12.64662016	      4.42658926	      7.64565449	     13.35510846	      0.23309061	     29.84069845	    -13.28804428	      0.00000000	      0.83157210	     -0.55407491	      1.31698988	      1.54431255	     -0.73691964	      1.39930174	      1.36618981	     -1.34717775	      1.39930174	      0.95040376	     -1.34717775	      1.15236614	      0.77219786	     -1.12986956	      1.07005427	      0.47516030	     -0.85826204	      0.98774241	      5.93983638	     -6.26780624	      7.32470260	      0.00000000	      0.00000000	     28.43297368	    -16.67461951	    -33.33352077	    200.46712986	   -184.53890860	    304.58675135	     13.62298575	      4.64428597	     -8.79986777	    -11.19113020	     21.92134212	      0.92368370	    114.99268591	     18.53944877	      5.83273781	     -3.92859930	     -5.93525744
      3.55932203	     -3.47740111	     -8.29211532	     88.43897536	      0.19581535	      0.94984844	      0.52904776	     10.96537836	     -6.11777237	    -16.70889893	     14.43529226	      0.25194338	     36.34894553	     17.94629771	      0.00000000	     12.37558323	      4.33661446	      7.85820282	     13.25887796	      0.23141108	     29.52270148	    -13.30270140	      0.00000000	      0.81524485	     -0.53982251	      1.25596505	      1.51399121	     -0.71796393	      1.33446287	      1.33936576	     -1.31252444	      1.33446287	      0.93174334	     -1.31252444	      1.09896942	      0.75703637	     -1.10080606	      1.02047160	      0.46583091	     -0.83618506	      0.94197379	      5.82321243	     -6.10658016	      6.98530082	      0.00000000	      0.00000000	     28.42993374	    -16.43311188	    -33.09912213	    201.09607917	   -184.34845278	    305.35895768	     13.65310075	      5.22400512	     -9.05452080	    -12.34145038	     22.61078827	      0.87627442	    115.10982592	     19.12006183	      6.00537662	     -3.78816651	     -6.32287530
      3.57627119	     -3.30186596	     -8.19280571	     89.15766991	      0.19507346	      0.95018129	      0.52857883	     10.52443771	     -5.98810290	    -17.32368007	     14.06281612	      0.24544244	     36.63401119	     17.95352455	      0.00000000	     12.26671957	      4.34414021	      9.05240659	     13.27355662	      0.23166727	     29.07122319	    -14.02579495	      0.00000000	      0.81344942	     -0.52062364	      1.12510018	      1.51065692	     -0.69242944	      1.19541894	      1.33641605	     -1.26584431	      1.19541894	      0.92969134	     -1.26584431	      0.98446266	      0.75536913	     -1.06165572	      0.91414389	      0.46480500	     -0.80644601	      0.84382513	      5.81038787	     -5.88939870	      6.25746966	      0.00000000	      0.00000000	     28.42788157	    -16.27201952	    -32.80427207	    201.76415189	   -185.01176835	    315.23800878	     11.41736825	      3.70092277	     -9.02109403	    -12.91375674	     23.25520311	      1.20170374	    117.54078318	     18.66390205	      5.98264754	     -3.65937684	     -7.38878356
      3.59322034	     -3.22243439	     -8.08114447	     89.50939115	      0.19447147	      0.94974860	      0.52885853	     10.38338930	     -5.98789401	    -17.65373312	     14.12898883	      0.24659738	     37.05238413	     17.91498815	      0.00000000	     12.36563336	      4.34181750	      9.18088227	     13.67075821	      0.23859974	     29.05965645	    -13.83347136	      0.00000000	      0.78930098	     -0.50880217	      1.07481623	      1.46581085	     -0.67670689	      1.14199225	      1.29674258	     -1.23710161	      1.14199225	      0.90209209	     -1.23710161	      0.94046420	      0.73294489	     -1.03754939	      0.87328819	      0.45100658	     -0.78813457	      0.80611218	      5.63789795	     -5.75567195	      5.97780545	      0.00000000	      0.00000000	     28.42593421	    -16.48317008	    -33.02229236	    202.25477832	   -184.54601086	    314.37281125	     11.30863362	      3.16023403	     -7.12976677	    -13.30363876	     23.73732062	      1.27848631	    117.78363958	     18.49151695	      6.62109386	     -3.33758221	     -8.39986650
